<?xml version="1.0" encoding="utf-8"?>
<!-- Generator: Adobe Illustrator 27.5.0, SVG Export Plug-In . SVG Version: 6.00 Build 0)  -->
<svg version="1.1" id="Layer_1" xmlns="http://www.w3.org/2000/svg" xmlns:xlink="http://www.w3.org/1999/xlink" x="0px" y="0px"
	 viewBox="0 0 270.299 518.778" style="enable-background:new 0 0 270.299 518.778;" xml:space="preserve">
<g>
	<path style="fill:#622803;" d="M220.97,53.43c-0.857-4.479-4.439-8.545-6.838-12.274c-2.16-3.361-3.891-6.932-7.547-8.948
		c-5.299-2.922-11.352-2.802-17.287-2c-3.469-1.241-6.834-4.111-10.305-5.309c-4.457-1.534-9.039-2.808-13.764-2.992
		c-4.582-0.18-9.436,0.423-13.955,1.112c-1.748,0.267-4.986,0.438-6.771,1.681c-6.756-2.621-13.887-4.292-20.582-3.779
		c-5.598,0.429-10.328,2.17-15.031,5.188c-0.783,0.502-1.555,1.025-2.318,1.56c-0.131-0.082-0.287-0.143-0.476-0.174
		c-10.178-1.613-20.033-0.354-29.762,2.788c-4.711,1.521-9.18,3.52-13.406,6.096c-2.703,1.647-6.006,4.172-9.115,5.829
		c-1.145,0-2.293-0.004-3.451-0.032c-3.303-0.08-6.377,0.649-9.23,1.972c-6.207,1.544-12.064,6.623-15.764,11.172
		c-4.73,5.814-7.949,14.425-5.467,21.78c2.832,8.383,15.209,11.771,22.74,13.396c5.016,1.082,9.6,0.329,14.467-1.098
		c3.713-1.089,6.986-3.089,10.354-4.916c-0.049,0.088-0.068,0.19-0.037,0.295c2.244,7.177,3.352,14.76,5.137,22.065
		c0.324,1.333,0.611,2.8,0.977,4.231c-12.645,5.199-20.742,18.596-23.645,31.418c-2.678,11.827,0.129,27.177,12.092,32.547
		c0.84,1.973,2.242,3.76,3.83,4.867c1.869,1.304,4.957,2.24,6.754,0.559c1.387,6.268,4.752,11.668,11.203,16.17
		c10.639,7.424,25.061,10.112,37.775,10.283c12.238,0.163,24.322-3.545,34.748-9.85c0.025,0.037,0.037,0.078,0.068,0.112
		c6.416,6.878,17.59,1.15,23.434-3.517c4.764-3.805,12.955-13.388,8.625-19.809c2.613-1.67,5.117-3.566,7.551-5.66
		c6.955-5.988,10.262-14.651,10.82-23.814c1.103-18.121-11.027-38.359-29.027-43.174c0.209-1.881,0.342-3.678,0.67-4.959
		c1.678-6.553,4.754-12.78,6.725-19.261c2.266-0.71,4.535-0.014,6.881,0.141c2.443,0.161,4.848-0.115,7.258-0.483
		c4.631-0.706,9.367-2.155,13.559-4.252C219.724,68.956,222.331,60.531,220.97,53.43z"/>
	<g>
		<path style="fill:#FFFFFF;" d="M61.265,172.576c-10.197-6.144-10.799-20.672-8.434-31.365c1.393-6.289,4.42-12.3,8.297-17.398
			c3.584-4.711,8.541-7.596,12.744-11.533c0.971,3.205,2.566,5.97,6.326,6.231c3.389,0.234,6.701,1.208,10.025,1.887
			c4.227,0.863,8.531,0.839,12.822,0.739c8.189-0.19,16.404-1.193,24.543-2.041c2.742-0.286,5.49-0.596,8.236-0.938
			c-2,2.207-4.648,3.983-6.934,5.729c-3.449,2.634-7.195,4.84-10.973,6.965c-7.734,4.35-15.307,8.194-23.635,11.276
			c-6.436,2.382-13.59,3.846-18.779,8.549c-4.029,3.651-5.65,8.482-4.42,13.548c-1.262-1.199-3.131-1.718-4.988-1.171
			c-3.17,0.934-4.621,4.634-4.9,7.582C61.136,171.27,61.163,171.922,61.265,172.576z"/>
		<path style="fill:#FFFFFF;" d="M72.196,179.094c-3.275,2.319-6.703-1.792-8.109-4.656c0.004-0.2-0.07-0.381-0.238-0.517
			c-0.074-0.173-0.143-0.34-0.197-0.496c-0.816-2.307-0.553-4.765,0.797-6.793c1.992-2.998,5.06-1.675,7.064,0.409
			c-0.012,0.274-0.004,0.556,0.15,0.8c0.09,0.145,0.211,0.216,0.342,0.243c-0.344,3.9-0.305,7.558,0.279,10.966
			C72.255,179.066,72.226,179.072,72.196,179.094z"/>
		<path style="fill:#FFFFFF;" d="M118.222,205.262c-10.594-0.547-22.348-4.492-31.393-10.029
			c-10.238-6.266-14.322-15.998-14.004-27.525c0.027-0.037,0.055-0.074,0.074-0.113c0.455-0.895,0.15-1.781-0.324-2.57
			c-0.398-4.634,0.094-7.957,2.834-12.014c2.908-4.305,6.668-5.58,11.219-7.295c7.57-2.853,15.377-4.28,22.779-7.639
			c6.307-2.86,12.451-6.28,18.156-10.203c3.557-2.447,7.35-5.314,9.693-9.037c0.039,6.723,3.186,13.143,7.525,18.934
			c3.791,5.064,7.57,10.063,12.023,14.57c2.488,2.52,5.477,4.487,8.078,6.88c1.564,1.438,4.301,3.48,6.043,5.711
			c-0.227,0.221-0.375,0.539-0.307,0.857c1.619,7.648,1.602,13.116-3.189,19.658c-3.457,4.721-8.664,8.29-13.658,11.202
			C143.073,202.888,130.564,205.9,118.222,205.262z"/>
		<path style="fill:#FFFFFF;" d="M174.409,167.056c0.396-1.044,0.936-2.016,1.582-2.923c1.715-2.409,5.266-2.409,6.906,0.064
			c1.84,2.773,0.547,6.766-1.266,9.136c-2.043,2.675-5.123,3.038-8.141,2.654c0.219-2.001,0.1-4.034-0.234-6.058
			c0.033-0.019,0.072-0.027,0.102-0.052c0.051-0.044,0.104-0.088,0.154-0.132c0.133-0.111,0.26-0.326,0.266-0.526
			c0.395-0.191,0.734-0.571,0.734-1.058C174.513,167.775,174.47,167.41,174.409,167.056z"/>
		<path style="fill:#FFFFFF;" d="M173.181,177.868c0.57,0.227,1.176,0.357,1.807,0.384c-0.672,0.194-1.355,0.367-2.043,0.529
			C173.03,178.479,173.112,178.174,173.181,177.868z"/>
		<path style="fill:#FFFFFF;" d="M178.335,191.383c-4.904,4.264-13.922,8.445-20.125,4.481c0.158-0.103,0.322-0.201,0.48-0.306
			c5.27-3.475,9.797-7.979,12.887-13.49c0.279-0.499,0.518-1.006,0.734-1.516c5.412-1.15,10.274-3.17,14.791-5.883
			C188.823,180.98,182.634,187.646,178.335,191.383z"/>
		<path style="fill:#FFFFFF;" d="M179.718,104.238c2.287,1.244,4.543,2.458,6.703,3.916c3.486,2.354,6.133,5.548,8.621,8.894
			c5.313,7.145,8.754,15.766,9.25,24.673c0.23,4.18-0.857,8.237-1.773,12.272c-1.352,5.963-4.242,9.584-8.775,13.533
			c-3.717,3.238-7.689,6.019-12.02,8.12c0.223-0.194,0.436-0.393,0.625-0.596c3.021-3.241,4.398-7.875,2.525-12.074
			c-1.344-3.009-5.621-4.343-8.385-2.428c-1.256,0.871-2.408,2.234-3.197,3.774c-1.424-2.125-3.822-3.727-5.691-5.605
			c-4.893-4.92-10.18-8.865-14.543-14.367c-6.389-8.058-13.152-16.657-13.658-26.657c11.564-1.573,23.07-3.832,34.096-7.639
			c2.625-0.906,3.555-3.884,4.031-7.006C178.257,103.444,178.989,103.84,179.718,104.238z"/>
		<path style="fill:#FFFFFF;" d="M178.456,89.287c-0.99,2.81-1.867,5.634-2.609,8.519c-0.26,1.006-0.398,2.17-0.559,3.353
			c-0.074,0.147-0.102,0.311-0.063,0.449c-0.43,3.021-1.123,6.054-4.453,6.8c-6.4,1.434-12.605,3.615-19.01,5.05
			c-3.139,0.703-6.305,1.25-9.484,1.707c-1.734,0.494-3.523,0.813-5.314,0.69c-2.498,0.292-5.002,0.554-7.504,0.803
			c-14.609,1.452-29.1,3.405-43.576,0.183c-2.133-0.476-6.906-0.438-8.346-2.273c-1.943-2.476-2.641-7.346-3.477-10.343
			c-1.863-6.68-3.572-13.254-5.932-19.78c-0.045-0.124-0.127-0.184-0.219-0.202c1.713-0.917,3.463-1.77,5.309-2.432
			c2.445,1.615,5.111,3.261,7.955,3.808c7.771,1.496,15.744,0.969,23.469-0.541c8.1-1.583,14.863-4.026,21.795-8.527
			c1.981-1.286,3.852-2.708,5.699-4.164c5.229-0.68,9.727,1.894,14.211,4.409c4.266,2.392,8.385,3.575,13.287,3.608
			c7.48,0.052,17.002-2.615,24.172-6.313C181.811,79.057,180.233,84.249,178.456,89.287z"/>
		<path style="fill:#FFFFFF;" d="M201.036,74.284c-4.039,1.062-8.102,0.931-12.188,0.391c-1.172-0.154-2.205-0.049-3.131,0.329
			c0.199-0.758,0.387-1.518,0.545-2.284c0.234-0.141,0.477-0.279,0.705-0.422c0.156-0.099,0.254-0.225,0.326-0.356
			c-3.955,0.131-7.719,1.113-11.406,2.603c-0.322,0.13-0.555,0.106-0.715-0.005c-7.586,2.333-15.568,3.889-22.895,1.505
			c-4.922-1.602-11.602-6.667-17.396-5.839c0.881-0.699,1.764-1.396,2.66-2.076c2.168-1.646,7.039-5.511,11.012-6.644
			c-1.242-0.076-2.475-0.141-3.688-0.124c-3.104,1.655-6.107,4.091-8.143,5.489c-8.676,5.962-16.02,12.536-26.633,14.816
			c-9.012,1.936-20.568,3.331-29.523,0.482c-3.895-1.24-7.035-3.969-11.072-4.845c-2.961-0.642-5.879-0.214-8.777,0.379
			c-0.654,0.22-1.262,0.489-1.783,0.825c0.029,0.139,0.135,0.246,0.346,0.225c4.289-0.438,8.941-0.235,12.623,2.205
			c0.055,0.036,0.111,0.074,0.166,0.11c-2.426,0.426-4.871,0.883-7.141,1.839c-4.336,1.827-8.293,3.875-12.951,4.832
			C43.8,89.4,33.702,84.961,27.089,80.326c-7.549-5.293-4.9-14.999-1.096-21.701c2.707-4.771,7.553-9.353,12.945-11.982
			c9.684-3.156,19.838,0.595,29.598-2.065c0.695-0.19,1.033-1.267,0.16-1.448c-4.066-0.848-8.07-0.923-12.111-0.922
			c1.27-0.67,2.523-1.373,3.785-1.969c4.299-2.03,8.543-4.131,13.014-5.779c4.94-1.82,10.256-3.1,15.457-3.891
			c4.645-0.707,9.379,0.021,14.068-0.144c-0.607,0.493-1.205,0.997-1.791,1.512c-2.016,1.776-3.141,4.195-5.01,6.084
			c-0.521,0.527,0.137,1.166,0.713,0.8c3.861-2.455,6.885-5.987,10.861-8.461c5.582-3.471,10.904-5.819,17.586-5.938
			c11.572-0.204,23.176,5.784,33.904,9.409c0.682,0.23,1.58-0.921,0.865-1.354c-3.898-2.36-8.314-4.741-12.965-6.733
			c0.406-0.068,0.695-0.116,0.693-0.116c2.842-0.521,5.764-0.661,8.646-0.728c3.768-0.087,7.521-0.343,11.27,0.183
			c4.363,0.61,8.945,2.218,12.98,3.958c1.43,0.616,2.826,1.287,4.252,1.851c-1.318,0.226-2.621,0.456-3.895,0.664
			c-0.641,0.104-0.746,1.178,0.014,1.106c2.387-0.229,4.869-0.531,7.365-0.724c0.553,0.104,1.113,0.187,1.691,0.217
			c0.248,0.013,0.488-0.144,0.67-0.355c4.975-0.203,9.914,0.271,14.209,2.933c3.098,1.919,4.732,5.485,6.49,8.52
			c2.229,3.848,5.115,7.314,6.406,11.633C221.218,66.109,209.677,72.015,201.036,74.284z"/>
	</g>
	<path style="fill:#622803;" d="M93.437,146.477c-2.244-0.022-4.1,3.598-4.146,8.082c-0.043,4.489,1.736,8.146,3.979,8.168
		c2.244,0.023,4.102-3.596,4.146-8.083C97.462,150.157,95.681,146.502,93.437,146.477z M96.421,152.359
		c-0.014,1.419-0.602,2.565-1.313,2.557c-0.711-0.006-1.271-1.162-1.258-2.584c0.014-1.42,0.602-2.566,1.311-2.559
		C95.872,149.78,96.437,150.939,96.421,152.359z"/>
	<path style="fill:#622803;" d="M141.524,144.81c-2.244-0.022-4.1,3.598-4.146,8.082c-0.043,4.489,1.736,8.146,3.979,8.168
		c2.244,0.023,4.101-3.596,4.146-8.083C145.55,148.49,143.769,144.835,141.524,144.81z M144.509,150.692
		c-0.014,1.419-0.602,2.566-1.313,2.557c-0.711-0.006-1.271-1.162-1.258-2.584c0.014-1.42,0.602-2.565,1.31-2.559
		C143.96,148.113,144.524,149.273,144.509,150.692z"/>
	<path style="fill:#622803;" d="M121.356,173.343c-2.107,1.932-3.873,2.989-6.836,2.296c-1.801-0.421-3.504-1.655-4.699-3.034
		c-1.408-1.625-1.217-4.056-0.371-5.853c1.492-3.176,5.086-2.44,7.154-0.494c0.299,0.282,0.771-0.253,0.572-0.564
		c-1.426-2.213-4.119-2.854-6.473-1.802c-2.623,1.172-3.971,4.396-4.16,7.062c-0.256,3.592,3.33,5.594,6.24,6.407
		c3.594,1.004,6.887-0.651,8.984-3.556C121.989,173.499,121.685,173.043,121.356,173.343z"/>
	<path style="fill:#622803;" d="M139.058,176.563c-1.262,1.511-2.555,2.914-3.9,4.211c-0.436-2.813-3.492-4.576-6.266-2.814
		c-3.408,2.163-4.293,6.285-4.455,10.07c-1.217,0.536-2.469,1.035-3.803,1.453c-5.848,1.833-18.174,3.244-21.912-3.025
		c-0.135-0.225-0.498,0.042-0.412,0.254c2.951,7.225,14.672,6.013,20.785,4.839c8.113-1.558,17.18-6.871,21.006-14.392
		C140.48,176.412,139.548,175.978,139.058,176.563z M127.751,181.151c0.852-1.251,2.445-2.466,4.041-2.015
		c1.279,0.361,1.691,1.688,1.986,2.88c-2.561,2.26-5.342,4.144-8.482,5.626C125.767,185.361,126.433,183.09,127.751,181.151z"/>
	<path style="fill:#622803;" d="M94.315,144.249c-0.939-1.276-3.596-0.422-3.373,1.262c0.098,0.73,1.016,0.544,1.152-0.079
		c0.002-0.015,0.004-0.016,0.006-0.027c0.105,0.007,0.264,0.029,0.355,0.043c0.41,0.062,0.752,0.217,1.205,0.104
		C94.157,145.428,94.685,144.751,94.315,144.249z"/>
	<path style="fill:#622803;" d="M145.583,140.734c-0.617-2.214-3.385-1.534-4.467-0.114c-0.623,0.816,0.334,1.529,1.027,0.832
		c0.324-0.325,0.74-0.409,1.158-0.242c0.275,0.109,0.4,0.609,0.676,0.793C144.776,142.531,145.829,141.618,145.583,140.734z"/>
	<path style="fill:#622803;" d="M178.403,169.339c-0.715-0.263-1.578,0.137-2.287,0.339c-0.736,0.211-1.287,0.693-1.816,1.225
		c-1.088,1.095-1.859,2.771-1.994,4.302c-0.057,0.641,0.797,0.356,0.93-0.063c0.41-1.306,1.172-2.488,2.264-3.323
		c1.043-0.796,2.6,0.039,3.213-1.45C178.862,169.999,178.843,169.5,178.403,169.339z"/>
	<path style="fill:#622803;" d="M72.001,173.916c-0.473-0.658-0.932-1.329-1.467-1.941c-0.959-1.093-2.346-1.522-3.152-0.015
		c-0.281,0.524,0.373,0.778,0.717,0.409c0.646-0.69,1.5,1.388,1.723,1.827c0.424,0.834,1.145,2.704,2.399,2.091
		c0.314-0.154,0.527-0.472,0.531-0.823C72.759,174.895,72.323,174.363,72.001,173.916z"/>
	<g>
		<path style="fill:#622803;" d="M240.898,182.099c-2.801,1.177-5.609,2.333-8.42,3.488c-0.25-0.702-0.617-1.391-1.15-2.055
			c-0.025-0.058-0.053-0.108-0.082-0.165c-0.402-0.596-1.01-1.283-1.662-1.431c-0.685-0.153-1.389-0.018-2.082,0.104
			c-0.385,0.177-0.748,0.393-1.059,0.617c-0.01,0.008-0.018,0.02-0.027,0.028c-1.457-0.451-2.955,0.832-3.9,1.984
			c-1.59-0.462-2.938,0.562-3.865,1.825c-1.906-0.113-3.787,1.319-5.027,2.58c-0.791,0.806-3.15,3.267-1.811,4.514
			c0.135,0.127,0.281,0.22,0.432,0.299c-3.068,1.267-6.133,2.54-9.189,3.837c-2.646-1.191-7.328,0.392-9.613,0.993
			c-2.567,0.676-5.09,1.544-7.594,2.472c-1.209,0.415-2.402,0.863-3.563,1.35c-1.295,0.496-2.588,0.991-3.881,1.467
			c-2.213,0.814-9.428,4.266-8.449,7.568c-0.107,0.127-0.143,0.301-0.074,0.45c3.48,7.44,12.846,9.406,20.02,6.641
			c4.221-1.628,8.074-4.153,10.969-7.624c2.213-2.654,2.854-6.167,3.145-9.578c2.891-0.864,5.738-1.864,8.566-2.924
			c-0.205,0.652-0.148,1.403,0.332,2.298c0.006,0.003,0.012,0.004,0.018,0.007c0.205,0.136,0.475,0.2,0.736,0.23
			c-0.107,0.51-0.086,1.047,0.014,1.567c-0.313,0.093-0.625,0.351-0.754,0.569c-4.135,7-6.303,15.699-9.158,23.279
			c-0.734,1.949-2.209,4.76-3.311,7.683c-11.953-5.222-22.943-11.794-34.375-18.069c-4.484-2.462-9.373-6.179-14.691-5.193
			c-0.678,0.126-1.191,0.434-1.584,0.834c-2.082-0.887-4.441-1.273-6.635-1.811c-1.777-0.436-5.42-0.721-6.852-2.209
			c0.002-3.153-0.221-3.498-3.889-3.217c-6.506,0.5-13.578,2.85-20.103,0.998c-0.125-0.035-0.252,0.031-0.332,0.129
			c-0.223-0.041-0.475,0.057-0.566,0.313c-0.414,1.137-0.408,2.372-0.545,3.565c-0.139,0.047-0.269,0.118-0.383,0.216
			c-0.58-0.259-1.24-0.49-1.246-0.491c-1.152-0.098-2.039-0.172-3.156,0.302c-4.609,1.952-9.154,4.003-13.543,6.417
			c-7.84,4.313-16.186,7.555-24.271,11.366c-3.807,1.795-7.791,3.246-11.732,4.717c-1.076,0.401-1.16,1.713-0.91,2.599
			c0.98,3.463,3.031,6.88,4.227,10.329c1.512,4.355,2.678,8.822,4.219,13.165c-0.891,0.464-1.555,1.772-1.994,2.522
			c-0.945,1.608,0.785,2.88,2.029,3.411c1.723,0.737,3.766,0.178,5.574-0.65c0.104,0.955,0.19,1.914,0.313,2.867
			c0.027,0.207,0.068,0.409,0.117,0.605c-0.504,0.06-0.982,0.182-1.369,0.356c-4.072,1.847-6.23,5.12-8.227,8.787
			c-0.389-1.814-0.482-3.387,0.373-5.411c0.391-0.921,0.398-1.822-0.428-2.436c-1.945-1.445-4.057,3.202-4.482,4.354
			c-0.885,2.4-0.563,8.315,1.877,9.873c0.754,0.482,1.455,0.695,2.111,0.719c0.662,1.171,2.324,1.186,3.557,1.086
			c0.414-0.033,0.828-0.148,1.238-0.303c0.945,0.884,2.941,0.113,3.895-0.397c0.797-0.427,1.832-1.204,2.199-2.144
			c0.066,0.019,0.137,0.007,0.207,0.003c-1.025,10.664-0.281,21.608,3.051,31.424c-0.104,0.155-0.082,0.444,0.145,0.452l0.004,0.009
			c-1.734,0.12-2.654,19.095-2.609,20.854c0.006,0.241,0.092,0.403,0.211,0.516c-5.404,8.663-9.865,17.703-13.57,27.417
			c-1.478,3.876-6.068,9.935-4.185,14.17c0.785,1.762,3.113,2.812,4.625,3.753c3.217,2.004,6.701,3.579,10.139,5.152
			c4.396,2.013,8.711,3.587,13.039,4.76c-0.387,6.414,0.899,13.488,1.893,19.763c1.314,8.3,3.746,16.392,5.715,24.549
			c3.641,15.09,8.59,31.814,16.99,45.008c0.207,0.325,0.533,0.378,0.84,0.276c0.025,0.018,0.061,0.028,0.086,0.045
			c-0.002,3.809-15.203,12.513-17.565,13.919c-4.129,2.458-8.674,3.657-12.242,7.029c-1.725,1.63-4.453,5.835-1.488,7.814
			c3.576,2.389,8.764,1.488,12.836,1.367c5.377-0.16,11.746-1.265,16.199-4.535c5.551-4.076,6.512-9.917,10.127-15.383
			c1.332-2.015,2.785-2.709,3.363-5.049c0.438-1.78-1.012-3.989-2.043-5.354c0.209-0.266,0.334-0.596,0.267-0.883
			c-1.867-7.909-5.578-15.596-8.195-23.301c-2.695-7.936-5.098-15.643-6.477-23.927c-1.324-7.956-3.24-15.837-4.156-23.847
			c-0.313-2.721-0.732-5.432-1.16-8.136c-0.23-1.446-0.52-2.885-0.773-4.326c-0.146-0.887-0.285-1.774-0.424-2.661
			c4.826,0.384,9.779,0.342,14.992-0.121c10.766-0.956,21.789-2.918,31.984-6.794c1.605,19.313,1.953,38.571,2.449,57.941
			c0.229,8.918,0.715,18.083,0.166,26.988c-0.102,1.62-0.662,4.003,0.303,5.498c0.053,0.08,0.105,0.149,0.16,0.22
			c-2.15,4.717-4.26,12.05-2.877,17.18c1.027,3.811,4.635,4.801,7.99,3.848c3.795-0.472,7.553-2.701,10.613-4.63
			c12.375-7.8,23.014-18.728,31.992-30.208c2.545-3.255,5.629-8.073,2.324-11.803c-2.377-2.68-7.348-0.525-9.893,0.619
			c-6.469,2.909-12.078,7.836-17.402,12.406c-4.949,4.246-10.031,8.334-15.031,12.52c-0.008-0.039-0.004-0.078-0.018-0.117
			c-0.41-2.214,0.959-5.286,1.291-7.501c0.512-3.409,0.855-6.852,1.504-10.237c0.586-3.066,1.02-6.373,1.225-9.64
			c0.031-0.08,0.072-0.149,0.088-0.241c1.834-10.963,1.332-22.777,1.266-33.869c-0.084-13.984-0.451-28.004-1.326-41.962
			c-0.877-13.976-2.359-27.94-3.764-41.871c-0.615-6.097-1.281-12.198-2.391-18.228c-0.656-3.566-0.963-9.967-3.342-12.925
			c0.34-0.298,0.584-0.733,0.502-1.184c-0.951-5.267-4.34-9.513-4.941-14.944c-0.711-6.432,0.143-12.027,2.096-18.173
			c1.883-5.933,4.564-11.638,6.887-17.406c1.808-4.487,4.623-9.222,5.68-13.953c1.803,0.696,3.756,1.146,5.533,1.745
			c4.365,1.471,8.539,3.509,12.668,5.531c7.82,3.833,16.568,8.689,25.256,10.022c0.188,0.028,0.363-0.035,0.52-0.143
			c3.033,0.148,4.518-3.292,6.152-5.693c4.016-5.893,6.867-12.87,9.582-19.429c1.369-3.306,2.469-6.709,3.895-9.994
			c0.73-1.684,2.355-3.516,2.549-5.38c0.109-1.056-0.072-1.555-0.689-1.891c0.59-2.495,0.56-5.16,1.084-7.68
			c0.025-0.029,0.055-0.055,0.072-0.087c0.047-0.084,0.082-0.175,0.119-0.263c1.824-0.739,3.105-1.938,4.391-3.868
			c1.301-1.956,2.461-3.985,3.06-5.986c1.123-0.446,2.248-0.894,3.379-1.318c6.287-2.366,12.936-3.347,19.254-5.558
			c1.891-0.661,7.525-2.176,7.49-5.153C262.489,172.667,243.034,181.201,240.898,182.099z M76.759,256.699
			c-0.351-0.241-0.93-0.169-1.168,0.395c-0.447-6.048-2.748-13.551-6.195-18.348c-0.355-0.494-1.094-1.309-1.973-2.057
			c4.648-0.888,9.217-2.745,13.664-4.283c4.877-1.688,10.014-2.674,14.926-4.244C88.034,236.418,80.931,246.282,76.759,256.699z"/>
		<path style="fill:#FFFFFF;" d="M173.011,210.34c0.27-0.676,1.455-1.821,2.545-2.331c0.258-0.191,0.51-0.389,0.777-0.568
			c0.565-0.413,1.16-0.786,1.775-1.13c2.775-1.295,5.545-2.328,6.029-2.511c3.596-1.354,7.211-2.662,10.92-3.671
			c1.586-0.431,3.184-0.644,4.813-0.809c1.291-0.433,1.668,0.217,1.131,1.945c-1.148,0.777-2.332,1.496-3.551,2.158
			c-5.436,3.074-11.734,5.909-17.988,7.418c-2.055,0.795-4.162,1.31-6.016,0.883C172.819,211.58,172.827,210.805,173.011,210.34z"/>
		<path style="fill:#FFFFFF;" d="M189.417,216.969c-3.885,1.773-7.434,1.132-11.369-0.023c-0.326-0.096-3.164-1.884-5.26-3.31
			c5.607,0.803,12.375-2.59,17.24-4.632c3.383-1.42,8.969-3.371,12.16-6.506C200.948,209.734,196.624,213.68,189.417,216.969z"/>
		<path style="fill:#FFFFFF;" d="M204.105,198.436c-0.02-0.019-0.041-0.033-0.061-0.053l-0.002-0.002
			c4.824-1.436,9.531-3.223,14.199-5.113c0.025,0.337,0.045,0.683,0.105,1.051c0.031,0.192-0.559,0.4-1.104,0.563
			c-0.355,0.195-0.74,0.393-1.133,0.599c-3.943,1.562-7.92,3.032-11.971,4.247c0.002-0.012,0.002-0.024,0.004-0.036
			c0.063-0.156,0.139-0.31,0.191-0.471C204.429,198.92,204.3,198.65,204.105,198.436z"/>
		<path style="fill:#FFFFFF;" d="M72.614,267.19c-0.16-0.739-0.475-1.39-0.746-2.129c-0.285-0.78-0.529-1.562-1.02-2.222
			c0.441-0.236,0.859-0.475,1.24-0.698c1.256-0.735,2.611-1.578,3.637-2.672c-0.209,0.602-0.426,1.202-0.613,1.807
			c-0.654,2.114-1.246,4.288-1.771,6.503C73.165,267.532,72.917,267.335,72.614,267.19z"/>
		<path style="fill:#FFFFFF;" d="M72.671,290.113c-0.053-8.996,1.664-17.099,4.361-25.595c4.246-13.373,12.156-26.44,21.621-37.27
			c0.045-0.016,0.088-0.029,0.131-0.046c0.195-0.075,0.307-0.275,0.336-0.477c1.857-2.101,3.77-4.125,5.729-6.038
			c0.281-0.274,0.041-0.784-0.313-0.488c-1.832,1.542-3.654,3.188-5.449,4.911c0.045-0.176,0.088-0.352,0.137-0.529
			c0.309-1.158,0.678-2.363,1.1-3.484c0.176-0.466-0.361-0.597-0.592-0.223c-0.563,0.911-1.115,1.779-1.555,2.761
			c-0.387,0.866-0.865,1.881-1.035,2.808c-0.01,0.055-0.008,0.104-0.006,0.154c-4.854,1.18-9.77,1.884-14.606,3.459
			c-5.25,1.712-11.203,3.216-16.068,5.895c-1.258-0.869-2.615-1.383-3.494-0.629c-0.289,0.248-0.148,0.875,0.281,0.632
			c2.098-1.188,6.225,6.618,6.537,7.345c1.844,4.289,4.547,10.54,4.613,15.188c0.002,0.088,0.023,0.154,0.047,0.218
			c-1.566,1.503-4.086,2.359-5.951,2.972c-0.479,0.156-5.109,0.797-4.475-0.948c0.215-0.593,0.484-1.209,0.742-1.813
			c0.322-0.068,0.645-0.427,0.543-0.801c-1.717-6.35-3.441-12.769-5.863-18.891c-1.106-2.795-3.734-5.59,0.16-7.164
			c3.568-1.442,7.102-3.016,10.553-4.717c6.426-3.166,13.082-5.692,19.656-8.514c3.342-1.435,6.713-2.813,10.074-4.202
			c3.475-1.437,6.711-3.223,10.453-3.02c0.139,0.208,0.324,0.394,0.574,0.576c0.119,0.086,0.252,0.159,0.387,0.23
			c0.024,0.016,0.047,0.029,0.07,0.042c0.156,0.081,0.316,0.157,0.467,0.235c0.523,0.275,0.914,0.75,1.381,1.116
			c0.727,0.572,1.477,1.107,2.227,1.647c0.781,0.564,1.439,1.283,2.365,1.602c0.385,0.133,0.74-0.318,0.646-0.645l0.004-0.001
			c-0.539-1.6-1.941-2.676-3.1-3.822c-0.738-0.729-1.518-1.629-2.412-2.298c-0.033-1.285-0.076-2.704-0.432-3.88
			c2.158,1.468,5.445,1.59,8.266,1.498c1.359,0.168,2.461,0.593,3.475,1.91c0.49,0.639,0.754,1.487,1.033,2.303
			c-0.051-0.004-0.1-0.009-0.15-0.014c0.221,0.064,0.438,0.145,0.654,0.223c1.502,3.03,5.566,4.639,8.301,6.271
			c4.828,2.882,10.145,5.515,14.527,9.087c0.164,0.191,0.313,0.392,0.42,0.611c0.109,0.167,0.209,0.338,0.311,0.508
			c0.025,3.671-4.129,7.97-5.963,10.543c-2.396,3.361-4.799,6.719-7.102,10.145c-3.904,5.807-7.186,12.022-9.734,18.536
			c-4.592,11.737-7.775,26.001-5.283,38.506c-3.064,0.85-6.16,1.598-9.217,2.335c-6.531,1.574-13.17,2.466-19.896,2.299
			c-5.654-0.14-12.553,0.419-17.473-2.811C73.753,302.301,72.706,296.326,72.671,290.113z"/>
		<path style="fill:#FFFFFF;" d="M111.927,492.763c-3.283,6.863-6.486,11.648-14.41,13.406c-5.102,1.131-10.814,0.706-16.025,0.712
			c-5.602,0.006-3.127-5.326-0.172-7.636c2.523-1.972,5.854-2.74,8.637-4.243c0.209-0.112,0.516-0.282,0.891-0.493
			c-0.279,2.372,4.002,3.394,6.861,3.144c5.178-0.453,10.811-2.885,15.039-6.52C112.47,491.658,112.198,492.195,111.927,492.763z"/>
		<path style="fill:#FFFFFF;" d="M115.167,479.936c0.912,2.293,1.736,3.356,1.195,5.084c-2.742,3.565-5.658,6.009-9.767,7.984
			c-1.498,0.719-13.867,4.414-13.791,0.376c5.26-3.098,15.25-9.489,15.867-13.351c0.428,0.117,0.848,0.194,1.156,0.238
			c1.582,0.225,3.795,0.302,5.301-0.569C115.128,479.776,115.136,479.857,115.167,479.936z"/>
		<path style="fill:#FFFFFF;" d="M95.729,407.844c0.689,7.638,2.557,15.084,3.789,22.643c2.615,16.036,8.133,32.167,14.84,47.036
			c-0.154,0.039-0.311,0.077-0.467,0.109c-0.83,0.17-1.701,0.142-2.541,0.117c-0.637-0.018-2.943,0.128-3.381-0.353
			c-0.07-0.077-0.149-0.117-0.229-0.137c-2.793-7.133-6.094-14.04-8.703-21.258c-2.725-7.531-4.986-15.232-7.016-22.977
			c-3.723-14.197-6.25-28.348-8.664-42.775c3.65,0.913,7.322,1.526,11.064,1.887C94.028,397.253,95.28,402.881,95.729,407.844z"/>
		<path style="fill:#FFFFFF;" d="M116.245,388.73c-13.66,1.9-26.621,1.605-39.605-3.362c-6.09-2.33-12.189-5.09-17.764-8.476
			c-4.818-2.927,1.951-14.868,3.527-18.911c4.33-11.11,10.34-21.273,15.969-31.742c0.234-0.435-0.354-0.738-0.627-0.358
			c-1.412,1.961-2.748,3.944-4.053,5.94c0.412-2.932,0.66-5.895,0.922-8.838c0.236-2.636,0.809-5.434,0.744-8.131
			c2.051,2.884,6.146,3.407,9.564,4.076c7.334,1.439,15.242,0.027,22.508-1.139c11.473-1.841,23.18-5.335,32.951-11.836
			c0.117,0.022,0.256-0.004,0.4-0.111c-1.135,0.84,0.35,5.821,0.529,6.797c0.594,3.206,1.219,6.404,1.922,9.588
			c1.541,6.979,2.6,14.036,3.637,21.104c0.926,6.31,2.072,12.555,3.195,18.83c0.594,3.316,0.98,6.655,1.285,10.009
			c0.139,1.515,1.121,4.706,0.629,6.367c-0.223-0.04-0.492,0.006-0.803,0.174C140.302,384.559,128.38,387.041,116.245,388.73z"/>
		<path style="fill:#FFFFFF;" d="M191.011,462.395c-5.863,7.683-13.006,14.643-20.35,20.886
			c-4.07,3.461-17.377,13.778-23.131,10.563c1.197-2.721,9.307-9.86,10.258-10.724c4.002-3.633,7.971-7.252,12.113-10.729
			c4.082-3.428,8.143-6.883,12.258-10.271c2.406-1.98,9.422-9.006,13.08-7.101C194.524,457.94,191.558,461.678,191.011,462.395z"/>
		<path style="fill:#FFFFFF;" d="M173.534,461.567c4.041-3.307,8.271-6.292,12.93-8.671c2.111-1.079,4.621-1.918,7.014-1.348
			c1.012,0.241,1.561,0.765,1.789,1.454c-1.908-0.741-4.184,0.662-5.861,1.731c-6.311,4.029-11.875,9.113-17.588,13.926
			c-5.949,5.013-11.615,10.334-17.545,15.357c-2.625,2.223-6.598,5.195-7.99,8.749c-0.49-0.618-0.869-1.428-1.117-2.447
			c-0.014-0.387-0.014-0.776,0-1.162c0.002-0.015,0.01-0.028,0.012-0.043c0.078-0.834,0.139-1.659,0.199-2.483
			c0.033-0.266,0.064-0.507,0.09-0.705c0.098-0.756,0.211-1.509,0.326-2.262c2.348,0.692,7.519-1.94,9.561-3.174
			c3.857-2.331,7.279-5.868,10.592-8.907c2.299-2.109,4.105-5.098,5.15-8.028C171.907,462.892,172.722,462.233,173.534,461.567z"/>
		<path style="fill:#FFFFFF;" d="M168.843,465.389c-2.162,3.565-5.143,6.002-8.398,8.875c-1.494,1.319-2.938,2.634-4.553,3.808
			c-0.293,0.213-7.723,4.814-9.756,3.389c0.059-0.368,0.117-0.737,0.176-1.106c0.182-0.73,0.367-1.459,0.553-2.187
			c0.086-0.336,0.064-0.741,0.123-1.112c1.283,0.643,2.813,0.302,4.438,0.61c-0.645,0.546-1.293,1.084-1.932,1.635
			c-0.391,0.337-0.072,0.952,0.398,0.621C156.415,475.335,162.659,470.405,168.843,465.389z"/>
		<path style="fill:#FFFFFF;" d="M148.251,307.815c0.377,2.885,1.045,5.749,1.451,8.635c0.854,6.069,1.414,12.183,2.07,18.275
			c1.365,12.659,2.779,25.341,3.635,38.046c0.859,12.755,0.975,25.528,1.232,38.304c0.246,12.18,0.363,24.865-1.166,36.965
			c-0.029,0.242,0.008,0.431,0.074,0.595c-0.393,3.114-0.867,6.205-1.553,9.274c-0.873,3.909-1.348,7.907-1.957,11.868
			c-0.268,1.735-1.049,3.542-1.148,5.313c-1.928-0.726-3.5-1.545-3.295-4.291c0.26-3.467,0.119-6.963,0.113-10.44
			c-0.017-8.466-0.195-16.919-0.451-25.38c-0.506-16.61,0.225-33.734-3.586-50.023c2.807-1.107,5.553-2.355,8.205-3.781
			c0.309-0.166,0.523-0.418,0.664-0.7c0.16-0.059,0.32-0.156,0.459-0.346c1.787-2.417,0.229-7.27-0.019-9.955
			c-0.68-7.359-2.426-14.544-3.535-21.839c-1.178-7.727-2.207-15.472-3.559-23.172c-0.674-3.849-1.492-7.677-2.27-11.506
			c-0.531-2.618-0.771-6.031-2.23-8.376c1.973-1.372,3.854-2.877,5.637-4.518C147.831,302.715,148.042,306.212,148.251,307.815z"/>
		<path style="fill:#FFFFFF;" d="M146.528,299.077c0.025,0.134,0.072,0.235,0.127,0.323c-0.008,0.017-0.016,0.033-0.023,0.051
			c-9.043,9.099-23.424,13.365-35.646,15.603c-11.08,2.028-25.707,4.89-35.633-2.08c-0.104-0.787-0.213-1.571-0.328-2.354
			c3.574,2.815,8.154,2.77,13.078,2.968c7.588,0.306,14.734-0.212,22.172-1.79c7.186-1.525,14.369-3.583,21.25-6.158
			c4.633-1.734,11.246-4.52,14.373-8.807C146.161,297.552,146.382,298.293,146.528,299.077z"/>
		<path style="fill:#FFFFFF;" d="M221.561,212.991c-1.318,2.206-2.258,4.611-3.182,7.001c-2.031,5.244-4.117,10.414-6.625,15.455
			c-1.369,2.75-5.699,14.3-9.793,13.398c-0.238-0.053-0.477,0.008-0.688,0.127c-7.652-2.383-15.129-5.747-22.459-8.958
			c-3.721-1.629-7.334-3.433-11.125-4.904c-3.608-1.4-7.721-1.758-11.221-3.271c-0.375-0.162-0.85,0.508-0.473,0.741
			c0.396,0.246,0.816,0.459,1.246,0.658c-5.561,10.721-10.789,21.725-14.484,33.262c-1.639,5.113-2.617,10.435-1.832,15.779
			c0.434,2.94,0.811,5.431,1.982,8.187c0.643,1.51,1.426,2.908,2.115,4.346c-0.168,0.105-0.322,0.249-0.441,0.442
			c-2.525,4.088-9.478,6.422-13.705,8.113c-2.639,1.057-5.365,1.944-8.123,2.742c0.006-0.061,0.021-0.12,0.012-0.181
			c-2.289-15.769,2.342-32.601,9.803-46.513c4.121-7.682,9.551-14.519,14.432-21.707c1.053-1.55,2.81-3.915,3.551-6.247
			c0.006,0.018,0.014,0.037,0.02,0.057c0.014-0.078,0.02-0.156,0.031-0.234c0.289-0.979,0.385-1.944,0.168-2.841
			c-0.027-0.536-0.084-1.068-0.213-1.59c-0.625-0.862-1.363-1.646-2.17-2.378c-1.18-0.771-2.533-1.459-3.195-1.895
			c-1.365-0.899-2.748-1.902-4.158-2.923c-1.418-0.744-2.822-1.445-4.123-2.138c-0.141-0.075-0.311-0.159-0.494-0.247
			c-1.316-0.915-2.621-1.834-4.018-2.646c-1.396-0.811-3.094-1.624-4.576-2.533c-0.016-0.142-0.061-0.283-0.15-0.419
			c-0.715-1.379-1.424-2.979-2.584-4.046c1.502-0.169,2.992-0.424,4.475-0.702c1.441-0.271,2.854-0.571,4.307-0.773
			c1.361-0.189,1.082,1.082,0.93,2.208c-0.594,0.258-1.146,0.787-1.584,1.151c-0.795,0.663-1.553,1.38-2.064,2.288
			c-0.186,0.326,0.135,0.732,0.49,0.543c0.76-0.404,1.438-0.936,2.158-1.403c0.699-0.454,1.576-0.753,2.098-1.407
			c0.063-0.046,0.123-0.098,0.176-0.156c0.664,0.821,1.803,1.046,3.262,1.531c3.014,1.002,6.557,1.938,9.764,2.033
			c-0.266,0.864-0.201,1.858,0.18,2.718c0.189,0.424,0.781,0.164,0.76-0.252c-0.313-6.27,11.57,1.125,13.332,2.035
			c4.373,2.259,8.666,4.673,12.971,7.057c7.412,4.102,15.221,9.266,23.514,11.417c-0.91,2.942-1.227,5.85,0.189,7.975
			c0.267,0.403,0.898-0.07,0.758-0.469c-1.32-3.771,1.535-7.608,2.867-10.977c1.148-2.908,2.092-5.914,3.127-8.865
			c2.076-5.934,3.861-12.627,6.773-18.289c1.133,2.063,2.82,4.234,5.26,4.413c1.012,0.074,1.902,0.214,2.502,0.522
			c0.133,0.211,0.328,0.363,0.559,0.438C222.261,211.152,222.224,211.883,221.561,212.991z"/>
		<path style="fill:#FFFFFF;" d="M221.71,208.018c-0.149,0.01-0.297,0.023-0.443,0.033c-1.959,0.145-3.354-0.441-4.436-1.432
			c-0.1-1.476-0.162-4.735,0.707-4.882c1.754-0.296,3.623-0.375,5.35-0.721c0.131-0.026,0.248-0.062,0.375-0.091
			C222.523,203.236,222.433,205.734,221.71,208.018z"/>
		<path style="fill:#FFFFFF;" d="M230.218,192.303c-0.932,3.225-3.162,5.68-6.086,7.098c-0.051,0.02-0.096,0.044-0.143,0.073
			c-0.984,0.462-2.043,0.809-3.158,1.026c-1.457,0.283-6.459,1.819-7.34-0.174c-0.645-0.283-0.646-1.144-0.23-1.648
			c1.576-1.91,3.926-2.305,6.152-2.994c0.059-0.061,0.104-0.138,0.148-0.215c0.076-0.165,0.145-0.334,0.201-0.508
			c0.201-0.878,0.018-2.117-0.135-2.734c-0.123-0.494-0.281-1.207-0.73-1.521c-0.51-0.355-1.625,0.511-2.096,0.745
			c-0.701,0.352-2.305,1.366-3.127,0.769c-0.072-0.053-0.113-0.111-0.156-0.168c-0.074-0.047-0.121-0.117-0.109-0.23
			c-0.092-0.465,0.449-0.985,0.875-1.246c0.389-0.44,0.793-0.867,1.223-1.254c1.574-1.414,3.84-1.523,4.936,0.396
			c0.434,0.759,0.598,1.688,1.256,2.256c-0.002-1.225-0.32-2.461-1.045-3.37c-0.248-0.226-0.537-0.503-0.713-0.796
			c-0.318-0.206-0.553-0.479-0.479-0.924c0.078-0.487,0.695-0.898,1.168-0.896c0.193,0.001,0.365,0.041,0.531,0.096
			c1.039,0.098,1.691,0.936,2.154,1.819c0.422,0.803,0.889,1.805,0.953,2.723c0.031,0.424,0.1,0.733,0.297,1.037
			c-0.002-0.144-0.002-0.274-0.006-0.38c-0.037-0.867,0.008-1.84-0.07-2.773c-0.258-0.619-0.395-1.285-0.621-1.917
			c-0.037-0.104-0.076-0.21-0.111-0.316c-0.248-0.296-0.463-0.622-0.381-1.036c0.01-0.05,0.027-0.1,0.047-0.148
			c-0.018-0.013-0.035-0.027-0.055-0.04c0.035-0.026,0.072-0.049,0.107-0.073c0.127-0.234,0.344-0.439,0.596-0.555
			c0.078-0.055,0.162-0.098,0.258-0.115c0.125-0.021,0.244-0.02,0.361-0.01l0.006-0.002c0.945-0.31,1.592,0.649,1.871,1.395
			c0.412,1.096,0.225,2.916,1.443,3.468c0.031,0.015,0.066,0.014,0.1,0.021c0.133-1.157,0.016-2.196-0.475-3.384
			c-0.254-0.613-0.598-1.475-0.453-2.164c0.117-0.559,0.588-0.811,1.08-0.822c0.186-0.072,0.387-0.102,0.588-0.057
			c0.293-0.059,0.592,0.014,0.832,0.289C232.061,185.79,231.72,189.304,230.218,192.303z"/>
		<path style="fill:#FFFFFF;" d="M259.124,180.109c-4.414,2.616-9.941,3.479-14.857,4.743c-3.91,1.007-7.693,2.364-11.449,3.831
			c0.051-0.497,0.059-0.99,0.016-1.476c3.418-1.438,6.834-2.887,10.252-4.329c2.854-1.204,5.754-2.257,8.711-3.179
			c0.994-0.289,1.998-0.539,3.004-0.781C253.817,179.229,264.077,177.173,259.124,180.109z"/>
		<path style="fill:#FFFFFF;" d="M70.351,280.602c-0.402,0.626-1.512,1.065-2.127,1.339c-0.313,0.139-0.623,0.24-0.941,0.324
			c0.523-0.509,0.975-1.064,1.299-1.613c0.305-0.517-0.209-1.015-0.723-0.802c-1.168,0.484-2.084,1.439-3.189,2.056
			c-0.773,0.431-1.65,0.594-2.527,0.576c1.193-0.778,2.199-2.137,3.07-3.452c0.561-0.847-0.326-1.568-1.039-0.84
			c-1.811,1.853-4.486,5.16-6.139,0.838c-0.953-2.494-1.191-5.242,0.154-7.635c1.395-2.479-0.08,1.012-0.107,1.509
			c-0.115,2.105,0.726,3.77,1.322,5.745c0.25,0.826,1.191,0.425,1.506-0.101c1.102-1.837,2.344-3.615,3.674-5.294
			c0.732-0.927,1.494-1.733,2.412-2.489c0.586-0.481,5.625-3.452,5.373-1.186c-0.02,0.166,0.021,0.293,0.092,0.385
			c-0.609,1.979-1.033,3.994-1.525,6.016C70.593,277.377,69.989,279.136,70.351,280.602z"/>
	</g>
	<path style="fill:#622803;" d="M149.991,296.441c2.01-0.421,4.488-0.256,6.107-0.345c1.658-0.09,3.367,0.052,5.016-0.094
		c3.463-0.307,2.178-2.319,1.523-4.619c-0.426-1.5-0.172-3.197-1.523-4.206c-1.135-0.847-3.328,0.128-4.414,0.476
		c-3.934,1.259-8.303,4.105-10.809,7.406c-0.441,0.584,0.24,1.099,0.736,0.596c2.467-2.505,6.029-4.397,9.238-5.738
		c2.096-0.877,4.164-1.523,4.58,1.354c0.139,0.971,0.352,1.853,0.846,2.682c-0.063,0.014-0.125,0.027-0.201,0.046
		c-0.586,0.061-1.17,0.09-1.758,0.087c-1.017,0.012-2.031,0.173-3.043,0.28c-3.15,0.335-6.08,0.686-9.037,1.88
		c-0.424,0.171-0.768,1.098-0.143,1.257c4.566,1.163,10.367,1.518,14.369,4.233c1.383,0.938-1.322,3.455-2.166,3.166
		c-1.561-0.533-3.027-1.593-4.51-2.313c-2.109-1.023-4.232-2.122-6.371-3.093c-0.76-0.345-1.469,0.976-0.68,1.389
		c3.781,1.978,7.492,4.436,11.551,5.863c1.734,0.61,3.529-2.523,4.158-3.644C165.706,299.112,155.112,297.116,149.991,296.441z"/>
	<path style="fill:#622803;" d="M127.397,216.765c-1.207-0.293-2.369,0.448-2.967,1.484c-0.367,0.563-0.582,1.24-0.58,1.885
		c0.008,1.271,1.113,1.883,2.24,1.793c1.252,0.171,2.459-0.999,2.617-2.228c0.057-0.197,0.102-0.398,0.123-0.607
		C128.925,218.168,128.36,216.998,127.397,216.765z"/>
	<path style="fill:#622803;" d="M145.694,229.987c-0.154-0.832-0.641-1.584-1.287-1.958c-0.721-0.579-1.785-0.393-2.615,0.129
		c-1.328,0.834-1.795,2.438-1.164,3.843c0.506,1.124,1.658,1.779,2.871,1.628C145.2,233.417,145.968,231.467,145.694,229.987z"/>
	<path style="fill:#622803;" d="M129.985,250.742c-1.25-0.561-2.723,0.401-3.373,1.612c-0.742,1.003-1.142,2.377-0.066,3.313
		c0.479,0.415,1.193,0.495,1.795,0.417c0.311-0.041,0.611-0.145,0.896-0.27c0.195-0.086,0.367-0.217,0.547-0.33
		c0.115-0.071,0.801-0.649,0.379-0.332C131.626,254.052,131.788,251.551,129.985,250.742z"/>
	<path style="fill:#622803;" d="M119.19,281.169c0.684-0.706,1.119-1.716,0.955-2.625c-0.039-0.872-0.453-1.7-1.322-2.053
		c-2.367-0.959-4.127,2.313-3.608,4.266c0.334,1.246,1.658,1.568,2.756,1.2C118.456,281.866,118.86,281.561,119.19,281.169z"/>
	<path style="fill:#622803;" d="M118.899,303.045c0.049-0.538-0.021-1.069-0.258-1.493c-0.299-0.535-0.744-0.824-1.225-0.912
		c-0.373-0.205-0.807-0.309-1.277-0.271c-0.707,0.057-1.311,0.704-1.639,1.274c-0.359,0.628-0.348,1.323-0.184,2.009
		c0.287,1.216,1.293,2.209,2.518,2.016c0.16-0.015,0.324-0.047,0.498-0.108c0.238-0.085,0.438-0.256,0.613-0.454
		c0.107-0.102,0.211-0.207,0.301-0.328c0.234-0.222,0.432-0.472,0.543-0.755C118.915,303.703,118.987,303.365,118.899,303.045z"/>
</g>
</svg>
